<svg width="70" height="64" viewBox="0 0 70 64" fill="none" xmlns="http://www.w3.org/2000/svg">
<path d="M22.1966 36.8233C22.1893 36.8281 22.1795 36.8306 22.1722 36.8354C22.1601 36.8136 22.1503 36.7918 22.1382 36.7676C22.1576 36.787 22.1771 36.8063 22.1966 36.8233Z" fill="white"/>
<path d="M51.3852 26.8208C51.3488 26.8208 51.3098 26.8159 51.2734 26.8087C51.0082 26.7457 50.8453 26.484 50.9085 26.22C51.198 24.999 51.3439 23.7369 51.3439 22.4699C51.3439 18.7658 50.1277 15.2749 47.8242 12.3776C47.6564 12.1668 47.6929 11.8567 47.9045 11.6896C48.1161 11.5224 48.4275 11.5587 48.5953 11.7695C51.0374 14.8413 52.329 18.5429 52.329 22.4699C52.329 23.812 52.1733 25.1492 51.8669 26.4429C51.8085 26.6682 51.6066 26.8208 51.3852 26.8208Z" fill="url(#paint0_linear_585_2322)"/>
<path d="M20.0958 15.1515C20.0107 15.1515 19.9231 15.1297 19.8453 15.0836C19.6118 14.9455 19.5364 14.6452 19.675 14.4126C23.6763 7.71425 29.4751 5.96275 33.6369 5.66963C38.1198 5.35469 41.6127 6.59988 41.7611 6.65318C42.0165 6.74523 42.1479 7.02625 42.0554 7.28062C41.963 7.53498 41.6808 7.6658 41.4254 7.57375C41.3914 7.56163 37.9544 6.34067 33.671 6.65076C27.9768 7.06017 23.5522 9.84125 20.5215 14.9141C20.4266 15.0643 20.2612 15.1515 20.0958 15.1515Z" fill="url(#paint1_linear_585_2322)"/>
<path d="M18.7149 38.869C18.6565 38.8327 18.6103 38.7842 18.5714 38.7261C18.62 38.7721 18.6662 38.8206 18.7149 38.869Z" fill="white"/>
<path d="M23.3734 42.4862C23.3199 42.4692 23.2713 42.4377 23.2275 42.4014C23.2761 42.4304 23.3248 42.4595 23.3734 42.4862Z" fill="white"/>
<path d="M21.5529 29.4903C21.5554 29.4903 21.5554 29.4903 21.5554 29.4928L21.563 29.4702C21.5605 29.4777 21.558 29.4827 21.5529 29.4903Z" fill="white"/>
<path d="M21.9419 30.3668C22.01 30.3232 22.0611 30.2554 22.0854 30.1754L22.2289 29.6909C22.1219 29.9211 22.0246 30.1439 21.9419 30.3668Z" fill="white"/>
<path d="M6.8667 61.1294C6.86913 61.3644 6.84237 61.6018 6.78399 61.8295C6.57481 62.629 6.0859 63.2249 5.3124 63.615C4.8016 63.8742 4.19836 64.0001 3.50027 64.0001C2.83623 64.0001 2.23786 63.8863 1.7076 63.661C1.1749 63.4357 0.7541 63.1086 0.445187 62.6847L0.43789 62.6726C-0.0145344 62.0476 0.435458 61.1779 1.20653 61.1779H1.27707C1.65895 61.1779 1.99219 61.408 2.15759 61.752C2.2257 61.8949 2.31813 62.0185 2.43245 62.1275C2.68055 62.3625 3.02595 62.4788 3.46135 62.4788C3.90648 62.4788 4.25674 62.3698 4.51214 62.1542C4.76511 61.9361 4.89403 61.6479 4.89403 61.2869C4.89403 61.0059 4.80646 60.7757 4.63619 60.594C4.46349 60.4148 4.24944 60.2718 3.98918 60.1677C3.72891 60.0635 3.37378 59.9472 2.91893 59.8212C2.3011 59.642 1.7976 59.4627 1.41085 59.2859C1.0241 59.109 0.693292 58.8425 0.415999 58.484C0.138707 58.1279 6.10352e-05 57.6482 6.10352e-05 57.0523C6.10352e-05 56.4903 0.141139 56.0009 0.423296 55.5866C0.705453 55.17 1.0995 54.8502 1.6103 54.6297C2.11867 54.4069 2.70001 54.2979 3.35676 54.2979C4.33701 54.2979 5.13483 54.5353 5.75023 55.0101C5.93509 55.1554 6.09806 55.3177 6.23184 55.497C6.69886 56.1148 6.23914 57.0014 5.46321 57.0014H5.36348C5.00592 57.0014 4.69457 56.7906 4.52187 56.4781C4.4562 56.357 4.36377 56.248 4.24944 56.1535C3.99161 55.9403 3.64621 55.8337 3.22054 55.8337C2.84596 55.8337 2.5492 55.9306 2.32786 56.1244C2.10408 56.3182 1.99462 56.6065 1.99462 56.9869C1.99462 57.2412 2.07732 57.4496 2.24759 57.6192C2.41542 57.7863 2.62461 57.922 2.87514 58.0261C3.12325 58.1303 3.47594 58.2514 3.9308 58.3847C4.54863 58.5664 5.05456 58.7481 5.44618 58.9298C5.83779 59.109 6.17346 59.3828 6.45562 59.7437C6.72075 60.0926 6.86183 60.5577 6.8667 61.1294Z" fill="url(#paint2_linear_585_2322)"/>
<path d="M10.7273 55.3784V62.9585C10.7273 63.4818 10.2992 63.9081 9.7714 63.9081C9.5087 63.9081 9.27033 63.8015 9.09763 63.6295C8.92493 63.4575 8.8179 63.2201 8.8179 62.9585V55.3784C8.8179 54.8551 9.246 54.4287 9.7714 54.4287C10.0341 54.4287 10.2749 54.5353 10.4476 54.7073C10.6227 54.8793 10.7273 55.1167 10.7273 55.3784Z" fill="url(#paint3_linear_585_2322)"/>
<path d="M17.3671 63.1814C17.3671 63.3824 17.2868 63.5641 17.153 63.6949C17.0217 63.8258 16.8392 63.9081 16.6374 63.9081H13.052C12.6482 63.9081 12.3223 63.5835 12.3223 63.1814V55.1555C12.3223 54.7558 12.6482 54.4287 13.052 54.4287H13.4996C13.9033 54.4287 14.2293 54.7533 14.2293 55.1555V61.7303C14.2293 62.13 14.5552 62.457 14.959 62.457H16.6374C17.0411 62.4546 17.3671 62.7792 17.3671 63.1814Z" fill="url(#paint4_linear_585_2322)"/>
<path d="M25.8486 55.3711C25.8486 55.4777 25.8292 55.5891 25.7902 55.6957L23.1657 62.8228C22.9273 63.4745 22.3046 63.9081 21.6065 63.9081C21.2587 63.9081 20.9279 63.7991 20.6579 63.6101C20.3855 63.4188 20.169 63.1499 20.0498 62.8228L17.4252 55.6957C17.199 55.0804 17.6563 54.4263 18.3155 54.4263H18.3277C18.7314 54.4263 19.0914 54.6806 19.2228 55.0634L21.4557 61.5243C21.5044 61.6673 21.7087 61.6673 21.7598 61.5267L24.0049 55.061C24.1362 54.6806 24.4962 54.4263 24.9 54.4263C25.4448 54.4287 25.8486 54.872 25.8486 55.3711Z" fill="url(#paint5_linear_585_2322)"/>
<path d="M29.2476 56.6428V57.6336C29.2476 58.0406 29.5784 58.3677 29.9846 58.3677H31.7165C32.1227 58.3677 32.4535 58.6947 32.4535 59.1017C32.4535 59.3052 32.3708 59.4869 32.2395 59.6201C32.1057 59.7534 31.9208 59.8333 31.7189 59.8333H29.9871C29.5809 59.8333 29.2501 60.1628 29.2501 60.5673V61.6672C29.2501 62.0742 29.5809 62.4012 29.9871 62.4012H32.1276C32.5338 62.4012 32.8646 62.7307 32.8646 63.1352V63.1764C32.8646 63.581 32.5338 63.9105 32.1276 63.9105H28.0777C27.669 63.9105 27.3406 63.581 27.3406 63.1764V55.1505C27.3406 54.7435 27.6714 54.4165 28.0777 54.4165H32.1276C32.5338 54.4165 32.8646 54.746 32.8646 55.1505V55.1772C32.8646 55.5818 32.5338 55.9112 32.1276 55.9112H29.9871C29.5784 55.9088 29.2476 56.2358 29.2476 56.6428Z" fill="url(#paint6_linear_585_2322)"/>
<path d="M39.9908 60.6518C39.8205 60.3635 39.9373 59.9928 40.2437 59.8499C40.6694 59.6512 41.0099 59.3751 41.2653 59.0262C41.6278 58.5223 41.8102 57.9603 41.8102 57.3353C41.8102 56.7926 41.6788 56.3009 41.421 55.8624C41.1607 55.4239 40.774 55.0751 40.2559 54.8183C39.7378 54.5591 39.1102 54.4307 38.3732 54.4307H35.3692C35.0554 54.4307 34.8 54.685 34.8 54.9975V63.3432C34.8 63.6557 35.0554 63.9101 35.3692 63.9101H36.1403C36.4541 63.9101 36.7095 63.6557 36.7095 63.3432V60.7826C36.7095 60.6251 36.7727 60.4846 36.8773 60.3829C36.9795 60.2811 37.123 60.2181 37.2787 60.2181C37.483 60.2181 37.6727 60.3271 37.7724 60.504L39.5456 63.6242C39.6454 63.8011 39.8351 63.9125 40.0418 63.9125H40.9248C41.3626 63.9125 41.6375 63.4353 41.4137 63.0573L39.9908 60.6518ZM39.4654 58.4206C39.21 58.675 38.8232 58.8009 38.3051 58.8009H37.2787C36.9649 58.8009 36.7095 58.5466 36.7095 58.2341V56.5286C36.7095 56.2161 36.9649 55.9641 37.2787 55.9641H38.3051C38.8232 55.9641 39.21 56.0877 39.4654 56.3372C39.7208 56.5867 39.8473 56.9332 39.8473 57.3765C39.8473 57.8174 39.7208 58.1662 39.4654 58.4206Z" fill="url(#paint7_linear_585_2322)"/>
<path d="M54.4462 55.1749C54.4462 55.5867 54.1105 55.921 53.697 55.921H52.6608C52.2473 55.921 51.9116 56.2553 51.9116 56.6671V63.1596C51.9116 63.5738 51.576 63.9057 51.1625 63.9057H50.7538C50.3403 63.9057 50.0046 63.5714 50.0046 63.1596V56.6671C50.0046 56.2553 49.669 55.921 49.2555 55.921H48.2193C47.8033 55.921 47.4701 55.5867 47.4701 55.1749C47.4701 54.9689 47.5528 54.7824 47.689 54.6467C47.8252 54.5111 48.0125 54.4287 48.2193 54.4287H53.6994C54.1105 54.4287 54.4462 54.763 54.4462 55.1749Z" fill="url(#paint8_linear_585_2322)"/>
<path d="M60.7205 63.1814C60.7205 63.3824 60.6378 63.5641 60.5064 63.6949C60.3751 63.8258 60.1926 63.9081 59.9907 63.9081H56.403C56.0016 63.9081 55.6732 63.5835 55.6732 63.1814V55.1555C55.6732 54.7558 55.9992 54.4287 56.403 54.4287H56.853C57.2567 54.4287 57.5827 54.7533 57.5827 55.1555V61.7303C57.5827 62.13 57.9086 62.457 58.3124 62.457H59.9907C60.3921 62.4546 60.7205 62.7792 60.7205 63.1814Z" fill="url(#paint9_linear_585_2322)"/>
<path d="M69.7656 62.4866C69.5345 62.7482 69.2693 62.9808 68.9726 63.1819C68.1772 63.7197 67.2432 63.9886 66.1705 63.9886C65.2608 63.9886 64.4411 63.7827 63.7089 63.3708C62.9768 62.959 62.4003 62.3873 61.9771 61.6532C61.5538 60.9192 61.3422 60.0859 61.3422 59.1532C61.3422 58.2205 61.5538 57.3847 61.9771 56.6483C62.4003 55.9118 62.9768 55.3352 63.7089 54.9234C64.4411 54.5092 65.2608 54.3057 66.1705 54.3057C67.2359 54.3057 68.1675 54.577 68.9653 55.1196C69.262 55.3207 69.5223 55.5484 69.7534 55.8052C70.2934 56.4109 69.8458 57.3726 69.031 57.3726H68.9702C68.6637 57.3726 68.384 57.2224 68.1991 56.9801C68.0094 56.7355 67.7832 56.5368 67.5205 56.3891C67.1288 56.1686 66.6764 56.0572 66.1583 56.0572C65.6037 56.0572 65.11 56.1831 64.677 56.4375C64.2465 56.6919 63.9108 57.0528 63.67 57.5228C63.4268 57.9928 63.3076 58.5378 63.3076 59.1532C63.3076 59.7685 63.4268 60.3112 63.67 60.7763C63.9108 61.2438 64.2465 61.6048 64.677 61.864C65.11 62.1232 65.6037 62.2516 66.1583 62.2516C66.6764 62.2516 67.1313 62.1377 67.5278 61.9125C67.7905 61.7623 68.0142 61.5636 68.1991 61.3214C68.384 61.0791 68.6661 60.9216 68.975 60.9216H69.0407C69.8556 60.9216 70.3031 61.8785 69.7656 62.4866Z" fill="url(#paint10_linear_585_2322)"/>
<path d="M34.9971 0C22.3609 0 12.0816 10.2377 12.0816 22.8228C12.0816 29.0003 14.5578 34.6109 18.5737 38.7244C18.6223 38.7728 18.6685 38.8213 18.7172 38.8673C20.0623 40.2215 21.5777 41.411 23.2268 42.3969C23.2292 42.3994 23.2292 42.3994 23.2292 42.3994C23.2779 42.4284 23.3265 42.4575 23.3752 42.4842C23.3776 42.4866 23.3776 42.4866 23.3801 42.4866C26.7878 44.4924 30.7624 45.6456 34.9996 45.6456C47.6358 45.6456 57.9151 35.4055 57.9151 22.8228C57.9127 10.2377 47.6334 0 34.9971 0ZM19.9309 38.688C20.5098 38.5039 21.3441 38.2229 22.2709 37.8523C22.2757 37.8498 22.283 37.8474 22.2879 37.845C22.9665 37.5737 23.6938 37.2563 24.409 36.8954C25.6957 36.2461 27.0408 35.8561 28.4078 35.735C29.4683 35.6405 30.4315 35.6599 31.0542 35.6913C31.6696 35.7228 32.2753 35.7228 32.8518 35.6889C33.9172 35.6259 35.2744 35.5097 36.245 35.294C36.2182 35.4079 36.1744 35.5387 36.0942 35.6768C35.7901 36.217 34.9582 36.9656 32.7302 37.4477C32.5283 37.4913 32.375 37.6585 32.3483 37.8619C32.3191 38.0679 32.4261 38.2665 32.611 38.361C32.6596 38.3852 37.449 40.7787 40.7181 37.4768C40.7254 37.4695 40.7303 37.4622 40.7351 37.455C41.4332 36.6652 42.8416 35.3667 43.6492 35.2359C43.6856 35.2286 43.7148 35.248 43.7246 35.2577C43.744 35.2747 43.7537 35.2916 43.7537 35.3134C43.7489 35.563 43.3913 36.1492 42.6835 37.0528C42.6762 37.0625 42.6689 37.0722 42.6616 37.0819C42.6373 37.1206 40.0711 40.8829 36.2498 41.5612C36.0893 41.583 33.3164 41.9149 30.8207 40.7956C30.6699 40.7254 27.1916 39.1144 23.5382 41.4497C22.2417 40.6527 21.0328 39.7249 19.9309 38.688ZM49.3945 20.6837L49.3872 20.6401C49.1026 19.3125 48.4093 18.9443 47.8791 18.8692C47.2758 18.7844 46.6653 19.1042 46.354 19.6638C45.904 20.4729 45.7921 21.2627 46.0207 22.0112C46.3102 22.9657 47.0837 23.581 47.4972 23.8499C47.1956 24.2158 46.8088 24.5719 46.3126 24.8965C45.9624 24.9982 43.9702 25.5506 42.5521 25.2744L42.4646 23.9154C42.3162 21.6042 40.7473 19.6323 38.5582 19.0073C38.4876 18.9879 38.4122 18.9685 38.3368 18.9491C38.0741 18.8837 37.8066 19.0412 37.7409 19.3053C37.6752 19.5669 37.8357 19.8334 38.0984 19.8988C38.1641 19.9157 38.2274 19.9327 38.2882 19.9497C40.0784 20.4608 41.3627 22.0815 41.4843 23.9783L42.0292 32.4572C42.0462 32.7165 42.2627 32.9151 42.5181 32.9151C42.5278 32.9151 42.54 32.9127 42.5497 32.9127C42.8197 32.8957 43.0265 32.6632 43.0094 32.3918L42.6057 26.132C42.8732 26.1707 43.1529 26.1877 43.4327 26.1877C44.4202 26.1877 45.4224 25.9866 46.0329 25.8389C46.0597 25.8631 46.0888 25.8825 46.1205 25.897C46.1399 25.9067 48.1247 26.8636 49.4163 28.1136C49.4723 28.1669 49.5258 28.2251 49.5793 28.2832C49.9272 28.6611 51.2017 29.9015 53.0528 29.9257H53.1087C54.1133 29.9257 55.1057 29.5672 56.0738 28.8598C53.4371 37.9782 44.9845 44.6669 34.9923 44.6669C31.1978 44.6669 27.627 43.7027 24.5111 42.0069C27.5224 40.362 30.2734 41.6145 30.4048 41.6775C32.1123 42.443 33.888 42.6004 35.058 42.6004C35.8315 42.6004 36.3398 42.5326 36.3909 42.5253C36.3958 42.5229 36.4031 42.5229 36.4079 42.5229C36.5782 42.4914 36.7485 42.4575 36.9139 42.4163C36.9649 42.4357 37.0209 42.4454 37.0768 42.4454C37.089 42.4454 37.1012 42.443 37.1133 42.443C40.5041 42.191 43.8048 40.9458 46.6532 38.8407C49.3288 36.8639 51.4936 34.233 52.9166 31.2363C53.0309 30.9916 52.9287 30.7009 52.683 30.5846C52.4374 30.4708 52.1431 30.5725 52.0287 30.8172C49.6596 35.81 45.1913 39.5432 40.1538 40.9216C42.1313 39.5553 43.3281 37.8426 43.4692 37.6318C44.3862 36.4569 44.7291 35.8294 44.7364 35.3183C44.7413 35.0082 44.6051 34.7126 44.3691 34.5091C44.1259 34.3008 43.8073 34.2087 43.4935 34.262C42.0949 34.4873 40.2584 36.5077 40.0103 36.7888C38.2079 38.6008 35.8679 38.3779 34.4134 37.9806C35.6661 37.5325 36.5198 36.9171 36.9528 36.1468C37.4368 35.2844 37.2058 34.5649 37.179 34.4849C37.1352 34.3614 37.0452 34.262 36.926 34.2039C36.8093 34.1482 36.6731 34.1433 36.549 34.1869C35.9142 34.4171 34.5812 34.5988 32.7958 34.7054C32.2534 34.7369 31.6842 34.7393 31.1053 34.7078C30.4534 34.6739 29.4416 34.6545 28.3227 34.7538C26.8316 34.8846 25.3673 35.311 23.9687 36.016C23.3801 36.3115 22.7744 36.5804 22.1979 36.8178C22.1906 36.8227 22.1809 36.8251 22.1736 36.8299C22.1614 36.8081 22.1517 36.7863 22.1395 36.7621L22.1371 36.7597C21.8817 36.2485 21.5095 35.3231 21.3977 34.1022C25.1289 33.7582 25.54 30.1558 25.5424 30.1195C25.5522 30.025 25.5254 29.933 25.4646 29.8603C25.4038 29.7876 25.3162 29.744 25.2214 29.7367C23.5357 29.6035 22.3487 30.4998 21.6409 31.2872C21.7212 30.9868 21.8185 30.6791 21.9425 30.3642C22.0276 30.1413 22.1225 29.916 22.2295 29.6883C22.4703 29.1747 22.772 28.6466 23.1465 28.1064C23.3071 27.9029 25.1338 25.4924 24.5962 22.176C26.3549 20.3494 25.7565 18.266 25.4087 17.4423C25.1679 16.8706 24.6473 16.4685 24.0514 16.3958C23.6476 16.3449 23.2925 16.4515 23.0274 16.701C22.716 16.9966 22.5798 17.4375 22.5239 17.8105C21.7017 17.326 21.0474 17.5368 20.6996 17.7354C20.4125 17.8978 20.1961 18.1691 20.0915 18.4985C19.8653 19.1938 19.9309 19.8382 20.2861 20.4124C21.0912 21.706 23.183 22.2147 23.9152 22.3601C24.3749 25.4028 22.6114 27.6606 22.592 27.6824C22.5871 27.6873 22.5822 27.6945 22.5774 27.7018C22.5068 27.8035 22.4387 27.9029 22.3755 28.0046C22.3049 26.3331 21.7674 23.5496 19.0699 22.91C18.9191 22.8737 18.7634 22.9415 18.6831 23.0747C18.6612 23.1111 16.6958 26.6334 21.2785 30.1583C20.4806 32.2974 20.6193 34.17 20.955 35.5C18.041 32.0503 16.1729 27.2003 16.1729 22.8252C16.1729 12.4858 24.6181 4.07472 34.9996 4.07472C45.381 4.07472 53.8263 12.4858 53.8263 22.8252C53.8263 24.4096 53.6268 25.9842 53.2328 27.5056C53.1647 27.7672 53.3252 28.0337 53.5855 28.1015C53.8482 28.1693 54.1157 28.0119 54.1838 27.7502C54.5973 26.1514 54.8065 24.4943 54.8065 22.8252C54.8065 11.9456 45.921 3.09601 34.9971 3.09601C24.0733 3.09601 15.1878 11.9456 15.1878 22.8252C15.1878 27.8956 17.5788 33.574 21.1933 37.2151C20.2861 37.5519 19.532 37.7893 19.1404 37.9055C15.3751 33.981 13.0594 28.666 13.0594 22.8252C13.0594 10.7803 22.8984 0.978708 34.9947 0.978708C47.0886 0.978708 56.93 10.7779 56.93 22.8252C56.93 24.4096 56.7597 25.9551 56.4362 27.4426C55.3368 28.5376 54.2179 29.0899 53.1087 29.0899H53.0649C51.552 29.0705 50.4915 28.0361 50.202 27.7188C50.1363 27.6485 50.0731 27.5782 50.005 27.5128C49.0345 26.5729 47.7477 25.8098 47.0302 25.4222C49.6547 23.5253 49.4066 20.8024 49.3945 20.6837ZM46.8259 21.7593C46.6678 21.2384 46.7577 20.6667 47.091 20.0684C47.2199 19.8358 47.451 19.6929 47.6845 19.6929C47.7112 19.6929 47.7356 19.6953 47.7623 19.6977C48.1442 19.7534 48.4118 20.1192 48.5602 20.7879C48.5723 20.9599 48.6185 22.0137 47.9764 23.1571C47.6675 22.956 47.0423 22.4764 46.8259 21.7593ZM21.5582 29.4896C21.5558 29.4872 21.5558 29.4872 21.5558 29.4872C18.2647 26.8733 18.8704 24.4314 19.1769 23.6658C22.0422 24.5985 21.6871 28.7992 21.6506 29.1795L21.5655 29.4678L21.5582 29.4896ZM24.7762 30.4296C24.5817 31.2387 23.8811 33.0823 21.5193 33.3899V32.6511C21.7309 32.2804 22.8352 30.5047 24.7762 30.4296ZM23.5114 17.2122C23.5819 17.1443 23.706 17.0596 23.9638 17.091C24.3117 17.1347 24.6157 17.3721 24.7592 17.7136C25.1216 18.5736 25.5011 20.2137 24.0952 21.6842C23.2682 21.5316 21.4901 21.0253 20.8796 20.0441C20.6339 19.6493 20.5925 19.2156 20.7555 18.7166C20.809 18.5518 20.9136 18.421 21.0474 18.3435C21.1958 18.2587 21.3514 18.2175 21.5144 18.2175C21.8525 18.2175 22.2198 18.3944 22.6017 18.7432C22.7063 18.8401 22.862 18.8619 22.9909 18.8014C23.1198 18.7408 23.1976 18.6051 23.1879 18.4622C23.1782 18.2321 23.2025 17.5029 23.5114 17.2122Z" fill="url(#paint11_linear_585_2322)"/>
<path d="M39.0127 14.7757C39.0127 16.9366 37.2467 18.6953 35.0771 18.6953C34.3036 18.6953 33.5544 18.4725 32.9098 18.0485C32.6836 17.9007 32.6203 17.5979 32.7712 17.3702C32.9195 17.1449 33.2236 17.0843 33.4522 17.2321C33.9338 17.5495 34.4957 17.7166 35.0771 17.7166C36.7043 17.7166 38.03 16.3988 38.03 14.7757C38.03 13.155 36.7043 11.8347 35.0771 11.8347C33.4498 11.8347 32.1241 13.1525 32.1241 14.7757C32.1241 15.1875 32.2093 15.5848 32.3722 15.9579C32.4817 16.205 32.3674 16.4957 32.1217 16.6047C31.8736 16.7113 31.5817 16.5998 31.4723 16.3527C31.2533 15.8561 31.1414 15.3256 31.1414 14.7781C31.1414 12.6172 32.9074 10.8584 35.0771 10.8584C37.2467 10.856 39.0127 12.6123 39.0127 14.7757Z" fill="url(#paint12_linear_585_2322)"/>
<path d="M32.2636 19.8985C32.1979 19.9154 32.1346 19.9324 32.0738 19.9494C30.286 20.4605 29.0017 22.0812 28.8777 23.9781L28.3328 32.457C28.3158 32.7162 28.0993 32.9148 27.8439 32.9148C27.8318 32.9148 27.822 32.9124 27.8123 32.9124C27.5423 32.8954 27.3355 32.6629 27.3526 32.3916L27.8974 23.9126C28.0458 21.6015 29.6147 19.6296 31.8038 19.0046C31.8768 18.9852 31.9498 18.9658 32.0252 18.9464C32.2879 18.881 32.5555 19.0385 32.6211 19.3025C32.6868 19.5642 32.5287 19.8331 32.2636 19.8985Z" fill="url(#paint13_linear_585_2322)"/>
<path d="M32.059 23.4702C31.9884 23.6083 31.8717 23.8893 31.7184 24.4296C31.4241 25.4543 31.2441 26.5469 31.1784 27.6806L30.8014 33.5044C30.7844 33.7636 30.5679 33.9623 30.3125 33.9623C30.3004 33.9623 30.2906 33.9599 30.2809 33.9599C30.0109 33.9429 29.8041 33.7103 29.8212 33.439L30.1982 27.6201C30.2663 26.4185 30.4609 25.2508 30.7747 24.1582C30.9182 23.6568 31.052 23.2886 31.1809 23.0293C31.3025 22.7871 31.5968 22.6902 31.8401 22.8089C32.0809 22.9349 32.1782 23.228 32.059 23.4702Z" fill="url(#paint14_linear_585_2322)"/>
<path d="M40.3772 34.6276C40.3918 34.8965 40.185 35.1291 39.915 35.1437H39.8883C39.628 35.1437 39.4115 34.9426 39.3969 34.6834L39.0126 27.6822C38.9469 26.5509 38.7645 25.4559 38.4726 24.4312C38.3194 23.8885 38.2026 23.6099 38.1321 23.4718C38.0105 23.2296 38.1102 22.9365 38.3534 22.8153C38.5967 22.6942 38.891 22.7935 39.0126 23.0358C39.144 23.295 39.2777 23.6656 39.4188 24.1671C39.7326 25.2597 39.9248 26.4249 39.9929 27.6313L40.3772 34.6276Z" fill="url(#paint15_linear_585_2322)"/>
<path d="M41.2072 16.3205C41.0807 16.3205 40.9567 16.2503 40.8958 16.1316C39.4632 13.365 40.2464 11.1217 43.2261 9.46472C43.3088 9.41869 43.4085 9.40658 43.4985 9.43565C43.5909 9.4623 43.6663 9.5277 43.7101 9.61249C44.4933 11.146 44.6855 12.4348 44.2963 13.5515C43.9071 14.6635 42.9464 15.5598 41.3556 16.289C41.3045 16.3108 41.2558 16.3205 41.2072 16.3205ZM43.2431 10.2617C40.9615 11.6426 40.3607 13.3214 41.3677 15.5065C42.5912 14.8936 43.3331 14.1766 43.6298 13.3214C43.929 12.4711 43.8025 11.4657 43.2431 10.2617Z" fill="url(#paint16_linear_585_2322)"/>
<path d="M44.5517 18.3558C43.9509 18.3558 43.2431 18.2396 42.4112 17.9658C42.309 17.9319 42.2263 17.8519 42.1898 17.7526C42.1534 17.6509 42.1655 17.5394 42.2239 17.4474C42.995 16.2385 43.8633 15.519 44.8095 15.3131C45.6341 15.1339 46.5122 15.3398 47.4195 15.926C47.5606 16.0157 47.6165 16.1925 47.5557 16.3476C47.1592 17.3432 46.3225 18.3558 44.5517 18.3558ZM43.0801 17.4377C44.9457 17.9489 46.1644 17.5927 46.7846 16.3597C46.1352 15.9963 45.5222 15.8752 44.9628 15.9987C44.3036 16.1392 43.6712 16.6237 43.0801 17.4377Z" fill="url(#paint17_linear_585_2322)"/>
<defs>
<linearGradient id="paint0_linear_585_2322" x1="47.7144" y1="19.2015" x2="52.3238" y2="19.2015" gradientUnits="userSpaceOnUse">
<stop stop-color="#694EA0"/>
<stop offset="0.6844" stop-color="#A2459A"/>
<stop offset="0.852" stop-color="#D74F82"/>
<stop offset="1" stop-color="#E76361"/>
</linearGradient>
<linearGradient id="paint1_linear_585_2322" x1="19.6038" y1="10.3839" x2="42.0807" y2="10.3839" gradientUnits="userSpaceOnUse">
<stop stop-color="#E76361"/>
<stop offset="0.148" stop-color="#D74F82"/>
<stop offset="0.3045" stop-color="#A2459A"/>
<stop offset="1" stop-color="#694EA0"/>
</linearGradient>
<linearGradient id="paint2_linear_585_2322" x1="3.43041" y1="54.293" x2="3.43041" y2="64.0022" gradientUnits="userSpaceOnUse">
<stop stop-color="#694EA0"/>
<stop offset="0.3436" stop-color="#A2459A"/>
<stop offset="0.6676" stop-color="#D74F82"/>
<stop offset="1" stop-color="#E76361"/>
</linearGradient>
<linearGradient id="paint3_linear_585_2322" x1="9.77322" y1="54.4283" x2="9.77322" y2="63.9077" gradientUnits="userSpaceOnUse">
<stop stop-color="#694EA0"/>
<stop offset="0.3436" stop-color="#A2459A"/>
<stop offset="0.6676" stop-color="#D74F82"/>
<stop offset="1" stop-color="#E76361"/>
</linearGradient>
<linearGradient id="paint4_linear_585_2322" x1="14.8443" y1="54.4283" x2="14.8443" y2="63.9077" gradientUnits="userSpaceOnUse">
<stop stop-color="#694EA0"/>
<stop offset="0.3436" stop-color="#A2459A"/>
<stop offset="0.6676" stop-color="#D74F82"/>
<stop offset="1" stop-color="#E76361"/>
</linearGradient>
<linearGradient id="paint5_linear_585_2322" x1="21.6078" y1="54.4283" x2="21.6078" y2="63.9077" gradientUnits="userSpaceOnUse">
<stop stop-color="#694EA0"/>
<stop offset="0.3436" stop-color="#A2459A"/>
<stop offset="0.6676" stop-color="#D74F82"/>
<stop offset="1" stop-color="#E76361"/>
</linearGradient>
<linearGradient id="paint6_linear_585_2322" x1="30.101" y1="54.4141" x2="30.101" y2="63.9076" gradientUnits="userSpaceOnUse">
<stop stop-color="#694EA0"/>
<stop offset="0.3436" stop-color="#A2459A"/>
<stop offset="0.6676" stop-color="#D74F82"/>
<stop offset="1" stop-color="#E76361"/>
</linearGradient>
<linearGradient id="paint7_linear_585_2322" x1="38.3059" y1="54.4279" x2="38.3059" y2="63.9072" gradientUnits="userSpaceOnUse">
<stop stop-color="#694EA0"/>
<stop offset="0.3436" stop-color="#A2459A"/>
<stop offset="0.6676" stop-color="#D74F82"/>
<stop offset="1" stop-color="#E76361"/>
</linearGradient>
<linearGradient id="paint8_linear_585_2322" x1="50.955" y1="54.4283" x2="50.955" y2="63.9077" gradientUnits="userSpaceOnUse">
<stop stop-color="#694EA0"/>
<stop offset="0.3436" stop-color="#A2459A"/>
<stop offset="0.6676" stop-color="#D74F82"/>
<stop offset="1" stop-color="#E76361"/>
</linearGradient>
<linearGradient id="paint9_linear_585_2322" x1="58.1978" y1="54.4283" x2="58.1978" y2="63.9077" gradientUnits="userSpaceOnUse">
<stop stop-color="#694EA0"/>
<stop offset="0.3436" stop-color="#A2459A"/>
<stop offset="0.6676" stop-color="#D74F82"/>
<stop offset="1" stop-color="#E76361"/>
</linearGradient>
<linearGradient id="paint10_linear_585_2322" x1="65.672" y1="54.3062" x2="65.672" y2="63.99" gradientUnits="userSpaceOnUse">
<stop stop-color="#694EA0"/>
<stop offset="0.3436" stop-color="#A2459A"/>
<stop offset="0.6676" stop-color="#D74F82"/>
<stop offset="1" stop-color="#E76361"/>
</linearGradient>
<linearGradient id="paint11_linear_585_2322" x1="34.9971" y1="0.000387607" x2="34.9971" y2="45.6483" gradientUnits="userSpaceOnUse">
<stop stop-color="#694EA0"/>
<stop offset="0.3436" stop-color="#A2459A"/>
<stop offset="0.6676" stop-color="#D74F82"/>
<stop offset="1" stop-color="#E76361"/>
</linearGradient>
<linearGradient id="paint12_linear_585_2322" x1="31.142" y1="14.7747" x2="39.013" y2="14.7747" gradientUnits="userSpaceOnUse">
<stop stop-color="#694EA0"/>
<stop offset="0.3436" stop-color="#A2459A"/>
<stop offset="0.6676" stop-color="#D74F82"/>
<stop offset="1" stop-color="#E76361"/>
</linearGradient>
<linearGradient id="paint13_linear_585_2322" x1="27.3516" y1="25.9246" x2="32.6359" y2="25.9246" gradientUnits="userSpaceOnUse">
<stop stop-color="#694EA0"/>
<stop offset="0.3436" stop-color="#A2459A"/>
<stop offset="0.6676" stop-color="#D74F82"/>
<stop offset="1" stop-color="#E76361"/>
</linearGradient>
<linearGradient id="paint14_linear_585_2322" x1="29.8178" y1="28.3637" x2="32.1094" y2="28.3637" gradientUnits="userSpaceOnUse">
<stop stop-color="#694EA0"/>
<stop offset="0.3436" stop-color="#A2459A"/>
<stop offset="0.6676" stop-color="#D74F82"/>
<stop offset="1" stop-color="#E76361"/>
</linearGradient>
<linearGradient id="paint15_linear_585_2322" x1="38.0784" y1="28.9522" x2="40.3768" y2="28.9522" gradientUnits="userSpaceOnUse">
<stop stop-color="#694EA0"/>
<stop offset="0.3436" stop-color="#A2459A"/>
<stop offset="0.6676" stop-color="#D74F82"/>
<stop offset="1" stop-color="#E76361"/>
</linearGradient>
<linearGradient id="paint16_linear_585_2322" x1="41.799" y1="16.4181" x2="42.9156" y2="9.33962" gradientUnits="userSpaceOnUse">
<stop stop-color="#CF4F7F"/>
<stop offset="1" stop-color="#89499C"/>
</linearGradient>
<linearGradient id="paint17_linear_585_2322" x1="44.8758" y1="15.2498" x2="44.8758" y2="18.3555" gradientUnits="userSpaceOnUse">
<stop stop-color="#89499C"/>
<stop offset="1" stop-color="#CF4F7F"/>
</linearGradient>
</defs>
</svg>
